HIERARCHY
ROOT Hip
{
	OFFSET	0.0000	0.0000	0.0000
	CHANNELS 6 Xposition Yposition Zposition Xrotation Yrotation Zrotation
	JOINT LowerSpine
	{
		OFFSET	0.0000	9.1202	-4.9353
		CHANNELS 3 Xrotation Yrotation Zrotation
		JOINT MiddleSpine
		{
			OFFSET	0.0000	8.3229	0.4348
			CHANNELS 3 Xrotation Yrotation Zrotation
			JOINT Chest
			{
				OFFSET	0.0000	10.2986	-2.2924
				CHANNELS 3 Xrotation Yrotation Zrotation
				JOINT Neck
				{
					OFFSET	0.0000	23.2075	-0.4826
					CHANNELS 3 Xrotation Yrotation Zrotation
					JOINT Head
					{
						OFFSET	0.0000	13.1056	3.5647
						CHANNELS 3 Xrotation Yrotation Zrotation
						End Site
						{
							OFFSET	0.0001	18.3119	0.5466
						}
					}
				}
				JOINT LClavicle
				{
					OFFSET	2.3430	22.3964	7.6731
					CHANNELS 3 Xrotation Yrotation Zrotation
					JOINT LShoulder
					{
						OFFSET	13.6881	3.2125	-5.1980
						CHANNELS 3 Xrotation Yrotation Zrotation
						JOINT LForearm
						{
							OFFSET	29.0763	-0.1033	-0.2520
							CHANNELS 3 Xrotation Yrotation Zrotation
							JOINT LHand
							{
								OFFSET	24.2557	0.0704	-0.1453
								CHANNELS 3 Xrotation Yrotation Zrotation
								JOINT LFinger1
								{
									OFFSET	9.4008	0.8221	2.6110
									CHANNELS 3 Xrotation Yrotation Zrotation
									JOINT LFinger11
									{
										OFFSET	3.5164	-0.8575	0.6196
										CHANNELS 3 Xrotation Yrotation Zrotation
										JOINT LFinger12
										{
											OFFSET	2.4005	-0.5856	0.4232
											CHANNELS 3 Xrotation Yrotation Zrotation
											End Site
											{
												OFFSET	1.7082	-0.5099	0.2771
											}
										}
									}
								}
								JOINT LFinger2
								{
									OFFSET	9.5411	0.9494	0.2273
									CHANNELS 3 Xrotation Yrotation Zrotation
									JOINT LFinger21
									{
										OFFSET	4.3478	0.0121	-0.0257
										CHANNELS 3 Xrotation Yrotation Zrotation
										JOINT LFinger22
										{
											OFFSET	2.4099	0.0073	-0.0147
											CHANNELS 3 Xrotation Yrotation Zrotation
											End Site
											{
												OFFSET	2.1646	-0.1528	0.0029
											}
										}
									}
								}
								JOINT LFinger3
								{
									OFFSET	9.0422	0.6335	-2.1392
									CHANNELS 3 Xrotation Yrotation Zrotation
									JOINT LFinger31
									{
										OFFSET	3.9452	-0.1998	-0.2470
										CHANNELS 3 Xrotation Yrotation Zrotation
										JOINT LFinger32
										{
											OFFSET	2.2481	-0.1131	-0.1413
											CHANNELS 3 Xrotation Yrotation Zrotation
											End Site
											{
												OFFSET	1.9878	-0.2444	-0.0940
											}
										}
									}
								}
								JOINT LFinger4
								{
									OFFSET	8.3908	-0.6377	-3.6945
									CHANNELS 3 Xrotation Yrotation Zrotation
									JOINT LFinger41
									{
										OFFSET	2.4267	-0.5061	-0.6699
										CHANNELS 3 Xrotation Yrotation Zrotation
										JOINT LFinger42
										{
											OFFSET	1.7795	-0.3706	-0.4915
											CHANNELS 3 Xrotation Yrotation Zrotation
											End Site
											{
												OFFSET	1.5794	-0.4340	-0.3624
											}
										}
									}
								}
								JOINT LFinger0
								{
									OFFSET	1.9446	-1.4719	1.4742
									CHANNELS 3 Xrotation Yrotation Zrotation
									JOINT LFinger01
									{
										OFFSET	3.6207	-1.1892	2.7298
										CHANNELS 3 Xrotation Yrotation Zrotation
										JOINT LFinger02
										{
											OFFSET	2.3842	-0.8531	1.7177
											CHANNELS 3 Xrotation Yrotation Zrotation
											End Site
											{
												OFFSET	1.7532	-0.6035	1.2005
											}
										}
									}
								}
							}
						}
					}
				}
				JOINT RClavicle
				{
					OFFSET	-2.3430	22.3964	7.6731
					CHANNELS 3 Xrotation Yrotation Zrotation
					JOINT RShoulder
					{
						OFFSET	-13.6905	3.2130	-5.1989
						CHANNELS 3 Xrotation Yrotation Zrotation
						JOINT RForearm
						{
							OFFSET	-29.0763	-0.1032	-0.2520
							CHANNELS 3 Xrotation Yrotation Zrotation
							JOINT RHand
							{
								OFFSET	-24.2557	0.0704	-0.1453
								CHANNELS 3 Xrotation Yrotation Zrotation
								JOINT RFinger1
								{
									OFFSET	-9.4008	0.8221	2.6110
									CHANNELS 3 Xrotation Yrotation Zrotation
									JOINT RFinger11
									{
										OFFSET	-3.5164	-0.8575	0.6196
										CHANNELS 3 Xrotation Yrotation Zrotation
										JOINT RFinger12
										{
											OFFSET	-2.4005	-0.5856	0.4232
											CHANNELS 3 Xrotation Yrotation Zrotation
											End Site
											{
												OFFSET	-1.7082	-0.5099	0.2771
											}
										}
									}
								}
								JOINT RFinger2
								{
									OFFSET	-9.5411	0.9494	0.2273
									CHANNELS 3 Xrotation Yrotation Zrotation
									JOINT RFinger21
									{
										OFFSET	-4.3478	0.0121	-0.0257
										CHANNELS 3 Xrotation Yrotation Zrotation
										JOINT RFinger22
										{
											OFFSET	-2.4099	0.0073	-0.0147
											CHANNELS 3 Xrotation Yrotation Zrotation
											End Site
											{
												OFFSET	-2.1646	-0.1528	0.0029
											}
										}
									}
								}
								JOINT RFinger3
								{
									OFFSET	-9.0422	0.6335	-2.1392
									CHANNELS 3 Xrotation Yrotation Zrotation
									JOINT RFinger31
									{
										OFFSET	-3.9452	-0.1997	-0.2470
										CHANNELS 3 Xrotation Yrotation Zrotation
										JOINT RFinger32
										{
											OFFSET	-2.2481	-0.1131	-0.1413
											CHANNELS 3 Xrotation Yrotation Zrotation
											End Site
											{
												OFFSET	-1.9878	-0.2444	-0.0940
											}
										}
									}
								}
								JOINT RFinger4
								{
									OFFSET	-8.3908	-0.6377	-3.6945
									CHANNELS 3 Xrotation Yrotation Zrotation
									JOINT RFinger41
									{
										OFFSET	-2.4267	-0.5061	-0.6699
										CHANNELS 3 Xrotation Yrotation Zrotation
										JOINT RFinger42
										{
											OFFSET	-1.7795	-0.3706	-0.4915
											CHANNELS 3 Xrotation Yrotation Zrotation
											End Site
											{
												OFFSET	-1.5794	-0.4340	-0.3624
											}
										}
									}
								}
								JOINT RFinger0
								{
									OFFSET	-1.9446	-1.4719	1.4742
									CHANNELS 3 Xrotation Yrotation Zrotation
									JOINT RFinger01
									{
										OFFSET	-3.6207	-1.1892	2.7298
										CHANNELS 3 Xrotation Yrotation Zrotation
										JOINT RFinger02
										{
											OFFSET	-2.3842	-0.8531	1.7177
											CHANNELS 3 Xrotation Yrotation Zrotation
											End Site
											{
												OFFSET	-1.7532	-0.6035	1.2005
											}
										}
									}
								}
							}
						}
					}
				}
			}
		}
	}
	JOINT RThigh
	{
		OFFSET	-9.7564	4.1226	-0.8042
		CHANNELS 3 Xrotation Yrotation Zrotation
		JOINT RShin
		{
			OFFSET	-0.7807	-42.4358	0.0000
			CHANNELS 3 Xrotation Yrotation Zrotation
			JOINT RFoot
			{
				OFFSET	0.0000	-41.6693	0.0000
				CHANNELS 3 Xrotation Yrotation Zrotation
				JOINT RToe
				{
					OFFSET	0.0000	-4.5798	9.5770
					CHANNELS 3 Xrotation Yrotation Zrotation
					End Site
					{
						OFFSET	0.0000	0.0000	6.4249
					}
				}
			}
		}
	}
	JOINT LThigh
	{
		OFFSET	9.7563	4.1229	-0.8042
		CHANNELS 3 Xrotation Yrotation Zrotation
		JOINT LShin
		{
			OFFSET	0.7807	-42.4361	0.0000
			CHANNELS 3 Xrotation Yrotation Zrotation
			JOINT LFoot
			{
				OFFSET	0.0000	-41.6693	0.0000
				CHANNELS 3 Xrotation Yrotation Zrotation
				JOINT LToe
				{
					OFFSET	0.0000	-4.5799	9.5771
					CHANNELS 3 Xrotation Yrotation Zrotation
					End Site
					{
						OFFSET	0.0000	0.0000	6.4248
					}
				}
			}
		}
	}
}
MOTION
Frames:	8
Frame Time: 0.0333333000
	-19.2828	48.2243	155.1110	5.096349	-4.455050	15.167750	0.000000	0.000000	0.000000	0.600685	0.287135	-3.239606	2.058738	0.822803	-10.802690	0.000000	0.000000	0.000000	0.000000	0.000000	0.000000	0.000000	0.000000	-9.687977	16.886730	-5.888007	-47.850920	-1.853464	-55.686200	-0.151630	0.000000	0.000000	0.000000	0.000000	0.000000	0.000000	0.000000	0.000000	0.000000	0.000000	0.000000	0.000000	0.000000	0.000000	0.000000	0.000000	0.000000	0.000000	0.000000	0.000000	0.000000	0.000000	0.000000	0.000000	0.000000	0.000000	0.000000	0.000000	0.000000	0.000000	0.000000	0.000000	0.000000	0.000000	0.000000	0.000000	0.000000	0.000000	0.000000	0.000000	0.000000	0.000000	0.000000	0.000000	0.000000	0.000000	0.000000	0.000000	0.000000	0.000000	10.536880	15.711820	18.486850	52.539420	0.520184	49.965620	0.208341	0.000000	0.000000	0.000000	0.000000	0.000000	0.000000	0.000000	0.000000	0.000000	0.000000	0.000000	0.000000	0.000000	0.000000	0.000000	0.000000	0.000000	0.000000	0.000000	0.000000	0.000000	0.000000	0.000000	0.000000	0.000000	0.000000	0.000000	0.000000	0.000000	0.000000	0.000000	0.000000	0.000000	0.000000	0.000000	0.000000	0.000000	0.000000	0.000000	0.000000	0.000000	0.000000	0.000000	0.000000	0.000000	0.000000	0.000000	0.000000	-95.504020	7.987563	-6.574597	76.801960	-1.385554	2.352781	-6.077463	-0.866723	-0.472366	0.000000	0.000000	0.000000	-87.844720	11.153870	4.485850	69.480110	7.263468	-16.869730	-2.150417	-0.394534	-0.197715	0.000000	0.000000	0.000000
	-19.6433	48.3149	158.2734	4.880779	-4.431898	15.315440	0.000000	0.000000	0.000000	0.601045	0.283316	-3.310292	2.060016	0.807163	-11.038040	0.000000	0.000000	0.000000	0.000000	0.000000	0.000000	0.000000	0.000000	-9.658042	15.941700	-5.516144	-48.842290	-3.365564	-55.986550	-0.111461	0.000000	0.000000	0.000000	0.000000	0.000000	0.000000	0.000000	0.000000	0.000000	0.000000	0.000000	0.000000	0.000000	0.000000	0.000000	0.000000	0.000000	0.000000	0.000000	0.000000	0.000000	0.000000	0.000000	0.000000	0.000000	0.000000	0.000000	0.000000	0.000000	0.000000	0.000000	0.000000	0.000000	0.000000	0.000000	0.000000	0.000000	0.000000	0.000000	0.000000	0.000000	0.000000	0.000000	0.000000	0.000000	0.000000	0.000000	0.000000	0.000000	0.000000	10.543030	14.064520	19.208540	52.826020	-0.694719	47.439930	0.121307	0.000000	0.000000	0.000000	0.000000	0.000000	0.000000	0.000000	0.000000	0.000000	0.000000	0.000000	0.000000	0.000000	0.000000	0.000000	0.000000	0.000000	0.000000	0.000000	0.000000	0.000000	0.000000	0.000000	0.000000	0.000000	0.000000	0.000000	0.000000	0.000000	0.000000	0.000000	0.000000	0.000000	0.000000	0.000000	0.000000	0.000000	0.000000	0.000000	0.000000	0.000000	0.000000	0.000000	0.000000	0.000000	0.000000	0.000000	0.000000	-95.299740	7.840736	-6.785085	77.077150	-1.458552	2.697137	-6.150674	-0.932758	-0.509254	0.000000	0.000000	0.000000	-87.445500	11.381690	4.171571	69.342160	7.260398	-16.751380	-2.019508	-0.336639	-0.168443	0.000000	0.000000	0.000000
	-20.0814	48.3341	161.3939	4.818735	-4.429783	15.424950	0.000000	0.000000	0.000000	0.603344	0.279164	-3.381487	2.067617	0.789938	-11.275180	0.000000	0.000000	0.000000	0.000000	0.000000	0.000000	0.000000	0.000000	-9.641966	15.797170	-4.238875	-49.437820	-4.322684	-57.216500	-0.113921	0.000000	0.000000	0.000000	0.000000	0.000000	0.000000	0.000000	0.000000	0.000000	0.000000	0.000000	0.000000	0.000000	0.000000	0.000000	0.000000	0.000000	0.000000	0.000000	0.000000	0.000000	0.000000	0.000000	0.000000	0.000000	0.000000	0.000000	0.000000	0.000000	0.000000	0.000000	0.000000	0.000000	0.000000	0.000000	0.000000	0.000000	0.000000	0.000000	0.000000	0.000000	0.000000	0.000000	0.000000	0.000000	0.000000	0.000000	0.000000	0.000000	0.000000	10.538340	13.560250	18.731750	52.537260	-1.268147	47.425610	0.094044	0.000000	0.000000	0.000000	0.000000	0.000000	0.000000	0.000000	0.000000	0.000000	0.000000	0.000000	0.000000	0.000000	0.000000	0.000000	0.000000	0.000000	0.000000	0.000000	0.000000	0.000000	0.000000	0.000000	0.000000	0.000000	0.000000	0.000000	0.000000	0.000000	0.000000	0.000000	0.000000	0.000000	0.000000	0.000000	0.000000	0.000000	0.000000	0.000000	0.000000	0.000000	0.000000	0.000000	0.000000	0.000000	0.000000	0.000000	0.000000	-95.216470	7.671356	-6.861575	77.177930	-1.509746	2.934826	-6.412249	-0.672165	-0.369028	0.000000	0.000000	0.000000	-87.133900	11.633950	4.017879	69.124450	7.350376	-16.792910	-1.656963	-0.234519	-0.116502	0.000000	0.000000	0.000000
	-20.3953	48.3961	164.3862	4.841430	-4.248317	15.608800	0.000000	0.000000	0.000000	0.607513	0.274696	-3.452412	2.081307	0.771205	-11.511510	0.000000	0.000000	0.000000	0.000000	0.000000	0.000000	0.000000	0.000000	-9.624096	16.367610	-2.536517	-49.638370	-4.590525	-58.923560	-0.144880	0.000000	0.000000	0.000000	0.000000	0.000000	0.000000	0.000000	0.000000	0.000000	0.000000	0.000000	0.000000	0.000000	0.000000	0.000000	0.000000	0.000000	0.000000	0.000000	0.000000	0.000000	0.000000	0.000000	0.000000	0.000000	0.000000	0.000000	0.000000	0.000000	0.000000	0.000000	0.000000	0.000000	0.000000	0.000000	0.000000	0.000000	0.000000	0.000000	0.000000	0.000000	0.000000	0.000000	0.000000	0.000000	0.000000	0.000000	0.000000	0.000000	0.000000	10.522160	14.242180	17.143130	51.613720	-1.097860	49.573930	0.131263	0.000000	0.000000	0.000000	0.000000	0.000000	0.000000	0.000000	0.000000	0.000000	0.000000	0.000000	0.000000	0.000000	0.000000	0.000000	0.000000	0.000000	0.000000	0.000000	0.000000	0.000000	0.000000	0.000000	0.000000	0.000000	0.000000	0.000000	0.000000	0.000000	0.000000	0.000000	0.000000	0.000000	0.000000	0.000000	0.000000	0.000000	0.000000	0.000000	0.000000	0.000000	0.000000	0.000000	0.000000	0.000000	0.000000	0.000000	0.000000	-95.242800	7.747109	-7.199533	77.263960	-1.573652	3.232754	-6.689287	-0.291285	-0.160763	0.000000	0.000000	0.000000	-86.797460	12.041190	3.672272	68.715810	7.484715	-16.789700	-1.438333	-0.122607	-0.060519	0.000000	0.000000	0.000000
	-20.4981	48.5757	167.3203	4.901269	-3.879398	15.932650	0.000000	0.000000	0.000000	0.613415	0.269972	-3.522299	2.100627	0.751195	-11.744480	0.000000	0.000000	0.000000	0.000000	0.000000	0.000000	0.000000	0.000000	-9.576422	17.490610	-0.695513	-49.619460	-4.244786	-60.790100	-0.190339	0.000000	0.000000	0.000000	0.000000	0.000000	0.000000	0.000000	0.000000	0.000000	0.000000	0.000000	0.000000	0.000000	0.000000	0.000000	0.000000	0.000000	0.000000	0.000000	0.000000	0.000000	0.000000	0.000000	0.000000	0.000000	0.000000	0.000000	0.000000	0.000000	0.000000	0.000000	0.000000	0.000000	0.000000	0.000000	0.000000	0.000000	0.000000	0.000000	0.000000	0.000000	0.000000	0.000000	0.000000	0.000000	0.000000	0.000000	0.000000	0.000000	0.000000	10.490820	15.830830	14.786440	50.276600	-0.236700	52.844900	0.198110	0.000000	0.000000	0.000000	0.000000	0.000000	0.000000	0.000000	0.000000	0.000000	0.000000	0.000000	0.000000	0.000000	0.000000	0.000000	0.000000	0.000000	0.000000	0.000000	0.000000	0.000000	0.000000	0.000000	0.000000	0.000000	0.000000	0.000000	0.000000	0.000000	0.000000	0.000000	0.000000	0.000000	0.000000	0.000000	0.000000	0.000000	0.000000	0.000000	0.000000	0.000000	0.000000	0.000000	0.000000	0.000000	0.000000	0.000000	0.000000	-95.394290	8.152568	-7.878211	77.400600	-1.650382	3.601438	-6.708858	-0.041558	-0.022881	0.000000	0.000000	0.000000	-86.466740	12.492410	2.967084	68.138020	7.553926	-16.509610	-1.651524	-0.014540	-0.007175	0.000000	0.000000	0.000000
	-20.5119	48.7532	170.2928	5.025826	-3.531639	16.391570	0.000000	0.000000	0.000000	0.620869	0.265087	-3.590432	2.121970	0.733391	-12.006520	0.000000	0.000000	0.000000	0.000000	0.000000	0.000000	0.000000	0.000000	-9.559306	19.056390	1.333859	-49.580440	-3.449347	-62.354850	-0.216602	0.000000	0.000000	0.000000	0.000000	0.000000	0.000000	0.000000	0.000000	0.000000	0.000000	0.000000	0.000000	0.000000	0.000000	0.000000	0.000000	0.000000	0.000000	0.000000	0.000000	0.000000	0.000000	0.000000	0.000000	0.000000	0.000000	0.000000	0.000000	0.000000	0.000000	0.000000	0.000000	0.000000	0.000000	0.000000	0.000000	0.000000	0.000000	0.000000	0.000000	0.000000	0.000000	0.000000	0.000000	0.000000	0.000000	0.000000	0.000000	0.000000	0.000000	10.478890	17.987810	12.040140	48.847400	1.160312	56.554410	0.283631	0.000000	0.000000	0.000000	0.000000	0.000000	0.000000	0.000000	0.000000	0.000000	0.000000	0.000000	0.000000	0.000000	0.000000	0.000000	0.000000	0.000000	0.000000	0.000000	0.000000	0.000000	0.000000	0.000000	0.000000	0.000000	0.000000	0.000000	0.000000	0.000000	0.000000	0.000000	0.000000	0.000000	0.000000	0.000000	0.000000	0.000000	0.000000	0.000000	0.000000	0.000000	0.000000	0.000000	0.000000	0.000000	0.000000	0.000000	0.000000	-95.729630	8.709778	-8.560619	77.505260	-1.704468	3.866049	-6.257501	-0.050761	-0.027806	0.000000	0.000000	0.000000	-86.315450	12.807100	2.146846	67.585830	7.522688	-16.032450	-2.340166	0.050759	0.025275	0.000000	0.000000	0.000000
	-20.5771	48.7608	173.2712	5.271326	-3.363605	16.957330	0.000000	0.000000	0.000000	0.629662	0.260174	-3.656178	2.139189	0.723025	-12.373000	0.000000	0.000000	0.000000	0.000000	0.000000	0.000000	0.000000	0.000000	-9.503207	21.031960	3.639359	-49.582000	-2.278637	-63.171070	-0.229318	0.000000	0.000000	0.000000	0.000000	0.000000	0.000000	0.000000	0.000000	0.000000	0.000000	0.000000	0.000000	0.000000	0.000000	0.000000	0.000000	0.000000	0.000000	0.000000	0.000000	0.000000	0.000000	0.000000	0.000000	0.000000	0.000000	0.000000	0.000000	0.000000	0.000000	0.000000	0.000000	0.000000	0.000000	0.000000	0.000000	0.000000	0.000000	0.000000	0.000000	0.000000	0.000000	0.000000	0.000000	0.000000	0.000000	0.000000	0.000000	0.000000	0.000000	10.428760	20.524810	9.038617	47.650970	2.887477	60.692660	0.419212	0.000000	0.000000	0.000000	0.000000	0.000000	0.000000	0.000000	0.000000	0.000000	0.000000	0.000000	0.000000	0.000000	0.000000	0.000000	0.000000	0.000000	0.000000	0.000000	0.000000	0.000000	0.000000	0.000000	0.000000	0.000000	0.000000	0.000000	0.000000	0.000000	0.000000	0.000000	0.000000	0.000000	0.000000	0.000000	0.000000	0.000000	0.000000	0.000000	0.000000	0.000000	0.000000	0.000000	0.000000	0.000000	0.000000	0.000000	0.000000	-96.282970	9.174498	-8.897529	77.530810	-1.709498	3.894425	-5.379507	-0.290743	-0.156228	0.000000	0.000000	0.000000	-86.430170	13.011380	1.567579	67.221360	7.489419	-15.698450	-3.328709	-0.000505	-0.000299	0.000000	0.000000	0.000000
	-20.6788	48.6329	176.1801	5.629148	-3.308347	17.558830	0.000000	0.000000	0.000000	0.639532	0.255402	-3.718987	2.156639	0.712829	-12.823460	0.000000	0.000000	0.000000	0.000000	0.000000	0.000000	0.000000	0.000000	-9.483533	23.305200	5.964967	-49.568590	-0.688304	-63.174480	-0.235821	0.000000	0.000000	0.000000	0.000000	0.000000	0.000000	0.000000	0.000000	0.000000	0.000000	0.000000	0.000000	0.000000	0.000000	0.000000	0.000000	0.000000	0.000000	0.000000	0.000000	0.000000	0.000000	0.000000	0.000000	0.000000	0.000000	0.000000	0.000000	0.000000	0.000000	0.000000	0.000000	0.000000	0.000000	0.000000	0.000000	0.000000	0.000000	0.000000	0.000000	0.000000	0.000000	0.000000	0.000000	0.000000	0.000000	0.000000	0.000000	0.000000	0.000000	10.366140	23.307970	5.857269	47.015440	4.792032	64.829420	0.527033	0.000000	0.000000	0.000000	0.000000	0.000000	0.000000	0.000000	0.000000	0.000000	0.000000	0.000000	0.000000	0.000000	0.000000	0.000000	0.000000	0.000000	0.000000	0.000000	0.000000	0.000000	0.000000	0.000000	0.000000	0.000000	0.000000	0.000000	0.000000	0.000000	0.000000	0.000000	0.000000	0.000000	0.000000	0.000000	0.000000	0.000000	0.000000	0.000000	0.000000	0.000000	0.000000	0.000000	0.000000	0.000000	0.000000	0.000000	0.000000	-96.978270	9.439368	-8.883666	77.540910	-1.680561	3.766522	-4.405156	-0.601520	-0.316873	0.000000	0.000000	0.000000	-86.730690	13.245240	1.327547	67.064910	7.544036	-15.707630	-4.353165	-0.211375	-0.110875	0.000000	0.000000	0.000000
